<?xml version="1.0" encoding="UTF-8" standalone="no"?>
<svg width="91px" height="91px" viewBox="0 0 91 91" version="1.1" xmlns="http://www.w3.org/2000/svg" xmlnsXlink="http://www.w3.org/1999/xlink" xmlnsSketch="http://www.bohemiancoding.com/sketch/ns">
    <title>iCog-icon@2x</title>
    <description>Created with Sketch (http://www.bohemiancoding.com/sketch)</description>
    <defs></defs>
    <g id="Page-1" stroke="none" stroke-width="1" fill="none" fill-rule="evenodd" sketchType="MSPage">
        <g id="i" sketchType="MSArtboardGroup" transform="translate(-186.000000, -69.000000)">
            <g id="i-teeth-+-i-circle-+-i" sketchType="MSLayerGroup" transform="translate(186.000000, 68.000000)">
                <path d="M86.6163464,46.4994668 L86.4020155,42.2842428 C87.9407195,41.6711 89.4740919,41.0046403 90.9989337,40.2837976 C90.7536794,38.4454353 90.4391141,36.6209353 89.9155496,34.8369561 C88.226494,34.753782 86.5502344,34.7228582 84.8878369,34.7431186 C84.4964964,33.393138 83.9462737,32.0932751 83.4845559,30.7656874 C82.926869,29.4764879 82.276412,28.2235437 81.6792712,26.9514056 C82.8724865,25.7880336 84.0241153,24.5873399 85.1576166,23.3343958 C84.230982,21.7274283 83.2254394,20.1748439 82.0674127,18.7246277 C80.4764589,19.2951171 78.918561,19.9093263 77.3915866,20.5651226 C76.4873447,19.4902565 75.5105929,18.4729725 74.5732951,17.4258311 C73.5261659,16.4874559 72.5067612,15.511759 71.432974,14.6064402 C72.0887626,13.0805142 72.7029646,11.5215318 73.2745137,9.93162563 C71.8253808,8.77358535 70.2717483,7.76803103 68.6637333,6.84138553 C67.4118702,7.97383377 66.2101242,9.12654238 65.0478322,10.3197717 C63.7757089,9.72049122 62.5238458,9.07215927 61.233595,8.51446584 C59.9070893,8.05060992 58.605109,7.50144717 57.2562105,7.11010206 C57.2775369,5.44875145 57.2455472,3.77140581 57.162374,2.08233047 C55.3784157,1.55982611 53.5528709,1.24525715 51.7145301,1 C50.9947621,2.52485968 50.3283103,4.0571837 49.7151746,5.59590574 L45.5,5.38263865 L41.2848254,5.59590574 C40.6716897,4.05825004 40.0041715,2.52485968 39.2844036,1 C37.4460628,1.24419082 35.6205179,1.55875977 33.837626,2.08233047 C33.7533865,3.77140581 33.7235294,5.44875145 33.7437895,7.11010206 C32.3938247,7.50144717 31.093977,8.05167626 29.766405,8.51446584 C28.4772205,9.07215927 27.2253574,9.72155755 25.9521678,10.3197717 C24.7898758,9.12654238 23.5881298,7.9749001 22.3352004,6.84138553 C20.7282517,7.76909736 19.1756855,8.77358535 17.7254863,9.93162563 C18.2959691,11.5215318 18.9101711,13.0805142 19.5659597,14.6064402 C18.4911062,15.5128253 17.4749004,16.4874559 16.4256386,17.4258311 C15.4883408,18.4729725 14.5126553,19.4913228 13.6062808,20.5651226 C12.081439,19.9103927 10.5224748,19.2961835 8.93152097,18.7246277 C7.77456058,20.1748439 6.76901805,21.7274283 5.84131708,23.3354621 C6.97375205,24.5873399 8.12644715,25.7890999 9.32072885,26.9524719 C8.72145536,28.2235437 8.07313101,29.4764879 7.51437778,30.7656874 C7.0505273,32.0932751 6.50137099,33.3942043 6.11003047,34.7431186 C4.44869932,34.7228582 2.77243965,34.753782 1.08231779,34.8380225 C0.559819545,36.6220017 0.245254277,38.4465016 0,40.2848639 C1.52484181,41.0046403 3.05714788,41.6711 4.59585189,42.2842428 L4.38152097,46.4994668 L4.59585189,50.7146908 C3.0582142,51.3289 1.52484181,51.9953597 0,52.7162024 C0.245254277,54.5545647 0.558753222,56.380131 1.08231779,58.1619775 C2.77137333,58.246218 4.44869932,58.2771418 6.11003047,58.2568814 C6.50137099,59.606862 7.05159363,60.9067249 7.51437778,62.2343126 C8.07313101,63.5235121 8.72145536,64.7764563 9.32072885,66.0475281 C8.12644715,67.2109001 6.97481837,68.4126601 5.84238341,69.6645379 C6.77008437,71.2725717 7.7756269,72.8251561 8.9325873,74.2753723 C10.5235411,73.7048829 12.0825053,73.0906737 13.6073471,72.4348774 C14.5137216,73.5097435 15.4883408,74.5270275 16.4256386,75.5741689 C17.4738341,76.5114778 18.4921725,77.488241 19.5659597,78.3935598 C18.9112374,79.9194858 18.2970354,81.4784682 17.7254863,83.0683744 C19.1756855,84.2264147 20.729318,85.2309026 22.3362667,86.1586145 C23.5881298,85.0261662 24.7898758,83.8734576 25.9532341,82.6802283 C27.2253574,83.2795088 28.4772205,83.9278407 29.7674713,84.4855342 C31.0950434,84.9493901 32.3959573,85.4985528 33.7459222,85.8898979 C33.7245957,87.5523149 33.7555191,89.2285942 33.8397586,90.9176695 C35.6226506,91.4401739 37.4481955,91.7547428 39.2865362,92 C40.0063042,90.4751403 40.672756,88.9428163 41.2858917,87.4040943 L45.5010663,87.6173613 L49.7162409,87.4040943 C50.3293766,88.94175 50.9968948,90.4751403 51.7166628,92 C53.5550035,91.7547428 55.3805484,91.4412402 57.1634404,90.9176695 C57.2466135,89.2285942 57.2775369,87.5523149 57.2572768,85.8898979 C58.6072416,85.4985528 59.9081556,84.9483237 61.2346614,84.4855342 C62.5249121,83.9278407 63.7767753,83.2784424 65.0499648,82.6802283 C66.2111905,83.8734576 67.4129365,85.0250999 68.6647996,86.1586145 C70.2728146,85.2309026 71.8264472,84.2253483 73.27558,83.0683744 C72.7050973,81.4784682 72.0908952,79.9194858 71.4340403,78.3935598 C72.5088938,77.488241 73.5272322,76.5114778 74.5743614,75.5741689 C75.5116592,74.5270275 76.4884111,73.5086772 77.3947856,72.4348774 C78.9196274,73.0896073 80.4775252,73.7038165 82.068479,74.2753723 C83.2265057,72.8251561 84.2320483,71.2725717 85.1586829,69.6645379 C84.0262479,68.4126601 82.8735528,67.2109001 81.6803375,66.0475281 C82.279611,64.7753899 82.9279353,63.5235121 83.4856222,62.2343126 C83.9484064,60.9067249 84.4975627,59.6057957 84.8889032,58.2568814 C86.5513007,58.2782081 88.2275603,58.246218 89.9166159,58.1619775 C90.4391141,56.3779983 90.7536794,54.5534984 91,52.7162024 C89.4751582,51.9953597 87.9428521,51.3289 86.4030818,50.7146908 L86.6163464,46.4994668 L86.6163464,46.4994668 Z" id="i-teeth" fill="#111111" sketchType="MSShapeGroup">
                    <animateTransform
                        attributeName="transform"
                        type="rotate"
                        from="0 45.5 46.5"
                        to="360 45.5 46.5"
                        dur="8s"
                        repeatCount="indefinite"
                    />
                </path>
                <circle id="i-circle" fill="#FFFFFF" sketchType="MSShapeGroup" cx="45.5" cy="46.5" r="35.5"></circle>
                <text id="i" fill="#E74C3C" sketchType="MSTextLayer" font-family="Clear Sans" font-size="63.2006583" font-weight="bold" sketchAlignment="middle">
                    <tspan x="37.0290133" y="68.4631372">i</tspan>
                </text>
            </g>
        </g>
    </g>
</svg>